# Blender v2.81 (sub 16) OBJ File: 'sala-pet-v2-0-0.blend'
# www.blender.org
mtllib mesa_maior.mtl
o Plane_Plane.015
v -18.287003 5.691820 -19.108662
v 14.949386 5.691820 -19.108662
v -18.287003 5.691820 -25.469261
v 14.949386 5.691820 -25.469261
v -18.287003 5.868341 -25.469261
v -18.287003 5.868341 -19.108662
v 14.949386 5.868341 -19.108662
v 14.949386 5.868341 -25.469261
v -18.287003 5.868341 -25.469261
v -18.287003 5.868341 -19.108662
v 14.949386 5.868341 -19.108662
v 14.949386 5.868341 -25.469261
v -18.287003 5.970160 -25.469261
v -18.287003 5.970160 -19.108662
v 14.949386 5.970160 -19.108662
v 14.949386 5.970160 -25.469261
vt 0.000000 1.000000
vt 1.000000 0.000000
vt 0.000000 0.000000
vt 0.000000 1.000000
vt 0.000000 0.000000
vt 0.000000 1.000000
vt 1.000000 1.000000
vt 1.000000 0.000000
vt 1.000000 1.000000
vt 0.000000 0.000000
vt 1.000000 1.000000
vt 1.000000 1.000000
vt 1.000000 0.000000
vt 1.000000 0.000000
vt 0.000000 1.000000
vt 0.000000 0.000000
vn 0.0000 -1.0000 0.0000
vn 0.0000 0.0000 1.0000
vn 1.0000 0.0000 0.0000
vn -1.0000 0.0000 0.0000
vn 0.0000 0.0000 -1.0000
vn 0.0000 1.0000 0.0000
usemtl None
s off
f 3/1/1 2/2/1 1/3/1
f 5/4/2 10/5/2 9/6/2
f 4/7/3 7/8/3 2/2/3
f 1/3/4 5/4/4 3/1/4
f 3/1/5 8/9/5 4/7/5
f 2/2/2 6/10/2 1/3/2
f 9/6/5 16/11/5 12/12/5
f 8/9/2 9/6/2 12/12/2
f 6/10/2 11/13/2 10/5/2
f 7/8/2 12/12/2 11/13/2
f 15/14/6 13/15/6 14/16/6
f 11/13/2 14/16/2 10/5/2
f 12/12/3 15/14/3 11/13/3
f 10/5/4 13/15/4 9/6/4
f 3/1/1 4/7/1 2/2/1
f 5/4/2 6/10/2 10/5/2
f 4/7/3 8/9/3 7/8/3
f 1/3/4 6/10/4 5/4/4
f 3/1/5 5/4/5 8/9/5
f 2/2/2 7/8/2 6/10/2
f 9/6/5 13/15/5 16/11/5
f 8/9/2 5/4/2 9/6/2
f 6/10/2 7/8/2 11/13/2
f 7/8/2 8/9/2 12/12/2
f 15/14/6 16/11/6 13/15/6
f 11/13/2 15/14/2 14/16/2
f 12/12/3 16/11/3 15/14/3
f 10/5/4 14/16/4 13/15/4
