# Blender v2.81 (sub 16) OBJ File: 'sala-pet-v2-0-0-copy.blend'
# www.blender.org
mtllib mesa_total.mtl
o Cube.011_Cube.080
v -18.339432 -0.330356 -2.111090
v -18.339043 5.666220 -2.031951
v -12.601238 -0.330356 -2.139203
v -12.600851 5.666220 -2.060065
v -18.337971 -0.334291 -1.812975
v -18.337584 5.662286 -1.733837
v -12.599778 -0.334291 -1.841089
v -12.599390 5.662286 -1.761950
v -18.424253 5.685924 -1.652287
v -18.315077 5.671690 -19.094667
v -12.489462 5.676344 -1.615131
v -12.380285 5.662110 -19.057514
v -18.423769 5.984723 -1.652528
v -18.314592 5.970489 -19.094912
v -12.488978 5.975142 -1.615372
v -12.379802 5.960909 -19.057755
v 8.612994 -0.318119 -0.122480
v 8.612992 5.693085 -0.122480
v 8.612996 -0.318119 -0.364043
v 8.612994 5.693084 -0.364043
v 14.897111 -0.318120 -0.122480
v 14.897109 5.693085 -0.122480
v 14.897113 -0.318120 -0.364043
v 14.897111 5.693084 -0.364043
v -18.287004 5.691821 -19.108662
v 14.949389 5.691821 -19.108664
v -18.287004 5.691821 -25.469263
v 14.949389 5.691821 -25.469265
v -18.287004 5.868341 -25.469263
v -18.287004 5.868341 -19.108662
v 14.949389 5.868341 -19.108664
v 14.949389 5.868341 -25.469265
v -18.287004 5.868341 -25.469263
v -18.287004 5.868341 -19.108662
v 14.949389 5.868341 -19.108664
v 14.949389 5.868341 -25.469265
v -18.287004 5.970161 -25.469263
v -18.287004 5.970161 -19.108664
v 14.949389 5.970161 -19.108664
v 14.949391 5.970161 -25.469263
v 8.563327 5.691820 -0.151578
v 8.563325 5.691821 -19.088682
v 14.923926 5.691821 -0.151579
v 14.923926 5.691821 -19.088684
v 14.923926 5.868341 -0.151579
v 8.563327 5.868341 -0.151578
v 8.563325 5.868341 -19.088682
v 14.923926 5.868341 -19.088682
v 14.923926 5.868341 -0.151579
v 8.563327 5.868341 -0.151578
v 8.563325 5.868341 -19.088682
v 14.923926 5.868341 -19.088682
v 14.923926 5.970161 -0.151579
v 8.563327 5.970161 -0.151578
v 8.563325 5.970161 -19.088684
v 14.923926 5.970161 -19.088684
vt 0.625000 0.000000
vt 0.375000 0.250000
vt 0.375000 0.000000
vt 0.625000 0.250000
vt 0.375000 0.500000
vt 0.625000 0.500000
vt 0.375000 0.750000
vt 0.625000 0.750000
vt 0.375000 1.000000
vt 0.125000 0.750000
vt 0.125000 0.500000
vt 0.875000 0.500000
vt 0.625000 0.000000
vt 0.375000 0.250000
vt 0.375000 0.000000
vt 0.625000 0.250000
vt 0.375000 0.500000
vt 0.625000 0.500000
vt 0.375000 0.750000
vt 0.625000 0.750000
vt 0.375000 1.000000
vt 0.125000 0.750000
vt 0.125000 0.500000
vt 0.875000 0.500000
vt 0.625000 1.000000
vt 0.875000 0.750000
vt 0.625000 0.000000
vt 0.375000 0.250000
vt 0.375000 0.000000
vt 0.625000 0.500000
vt 0.375000 0.500000
vt 0.625000 0.750000
vt 0.375000 0.750000
vt 0.375000 1.000000
vt 0.125000 0.750000
vt 0.125000 0.500000
vt 0.875000 0.750000
vt 0.000000 0.000000
vt 1.000000 1.000000
vt 1.000000 0.000000
vt 0.000000 1.000000
vt 0.000000 0.000000
vt 0.000000 1.000000
vt 1.000000 0.000000
vt 0.000000 1.000000
vt 0.000000 0.000000
vt 1.000000 1.000000
vt 1.000000 1.000000
vt 1.000000 1.000000
vt 1.000000 0.000000
vt 0.000000 0.000000
vt 0.000000 1.000000
vt 1.000000 0.000000
vt 0.000000 0.000000
vt 1.000000 1.000000
vt 1.000000 0.000000
vt 0.000000 1.000000
vt 0.000000 0.000000
vt 0.000000 1.000000
vt 1.000000 1.000000
vt 1.000000 0.000000
vt 0.000000 1.000000
vt 0.000000 0.000000
vt 1.000000 1.000000
vt 0.000000 1.000000
vt 1.000000 1.000000
vt 1.000000 0.000000
vt 0.000000 0.000000
vt 1.000000 0.000000
vt 0.625000 1.000000
vt 0.875000 0.750000
vt 0.625000 0.250000
vt 0.625000 1.000000
vt 0.875000 0.500000
vn -0.0049 0.0132 -0.9999
vn 1.0000 0.0000 -0.0049
vn 0.0049 -0.0132 0.9999
vn -1.0000 0.0000 0.0049
vn -0.0001 -0.9999 -0.0132
vn 0.0001 0.9999 0.0132
vn -0.0016 -1.0000 0.0008
vn 1.0000 -0.0016 0.0063
vn 0.0016 1.0000 -0.0008
vn -1.0000 0.0016 -0.0063
vn -0.0063 0.0008 1.0000
vn 0.0063 -0.0008 -1.0000
vn -1.0000 -0.0000 -0.0000
vn 0.0000 0.0000 -1.0000
vn 1.0000 0.0000 0.0000
vn -0.0000 0.0000 1.0000
vn -0.0000 -1.0000 0.0000
vn 0.0000 1.0000 0.0000
usemtl None
s off
f 2/1/1 3/2/1 1/3/1
f 4/4/2 7/5/2 3/2/2
f 8/6/3 5/7/3 7/5/3
f 6/8/4 1/9/4 5/7/4
f 7/5/5 1/10/5 3/11/5
f 4/12/6 6/8/6 8/6/6
f 10/13/7 11/14/7 9/15/7
f 12/16/8 15/17/8 11/14/8
f 16/18/9 13/19/9 15/17/9
f 14/20/10 9/21/10 13/19/10
f 15/17/11 9/22/11 11/23/11
f 12/24/12 14/20/12 16/18/12
f 10/13/7 12/16/7 11/14/7
f 12/16/8 16/18/8 15/17/8
f 16/18/9 14/20/9 13/19/9
f 14/20/10 10/25/10 9/21/10
f 15/17/11 13/19/11 9/22/11
f 12/24/12 10/26/12 14/20/12
f 18/27/13 19/28/13 17/29/13
f 19/28/14 24/30/14 23/31/14
f 23/31/15 22/32/15 21/33/15
f 22/32/16 17/34/16 21/33/16
f 23/31/17 17/35/17 19/36/17
f 24/30/18 18/37/18 22/32/18
f 25/38/17 28/39/17 26/40/17
f 29/41/16 34/42/16 33/43/16
f 28/39/15 31/44/15 26/40/15
f 27/45/13 30/46/13 29/41/13
f 27/45/14 32/47/14 28/39/14
f 25/38/16 31/44/16 30/46/16
f 33/43/14 40/48/14 36/49/14
f 32/47/16 33/43/16 36/49/16
f 30/46/16 35/50/16 34/42/16
f 31/44/16 36/49/16 35/50/16
f 38/51/18 40/48/18 37/52/18
f 34/42/16 39/53/16 38/51/16
f 36/49/15 39/53/15 35/50/15
f 33/43/13 38/51/13 37/52/13
f 41/54/18 44/55/18 42/56/18
f 45/57/16 50/58/16 49/59/16
f 42/56/16 48/60/16 47/61/16
f 41/54/14 45/57/14 43/62/14
f 44/55/13 45/57/13 48/60/13
f 42/56/15 46/63/15 41/54/15
f 52/64/13 53/65/13 56/66/13
f 48/60/16 49/59/16 52/64/16
f 46/63/16 51/67/16 50/58/16
f 47/61/16 52/64/16 51/67/16
f 54/68/17 56/66/17 53/65/17
f 51/67/15 54/68/15 50/58/15
f 51/67/16 56/66/16 55/69/16
f 50/58/14 53/65/14 49/59/14
f 2/1/1 4/4/1 3/2/1
f 4/4/2 8/6/2 7/5/2
f 8/6/3 6/8/3 5/7/3
f 6/8/4 2/70/4 1/9/4
f 7/5/5 5/7/5 1/10/5
f 4/12/6 2/71/6 6/8/6
f 18/27/13 20/72/13 19/28/13
f 19/28/14 20/72/14 24/30/14
f 23/31/15 24/30/15 22/32/15
f 22/32/16 18/73/16 17/34/16
f 23/31/17 21/33/17 17/35/17
f 24/30/18 20/74/18 18/37/18
f 25/38/17 27/45/17 28/39/17
f 29/41/16 30/46/16 34/42/16
f 28/39/15 32/47/15 31/44/15
f 27/45/13 25/38/13 30/46/13
f 27/45/14 29/41/14 32/47/14
f 25/38/16 26/40/16 31/44/16
f 33/43/14 37/52/14 40/48/14
f 32/47/16 29/41/16 33/43/16
f 30/46/16 31/44/16 35/50/16
f 31/44/16 32/47/16 36/49/16
f 38/51/18 39/53/18 40/48/18
f 34/42/16 35/50/16 39/53/16
f 36/49/15 40/48/15 39/53/15
f 33/43/13 34/42/13 38/51/13
f 41/54/18 43/62/18 44/55/18
f 45/57/16 46/63/16 50/58/16
f 42/56/16 44/55/16 48/60/16
f 41/54/14 46/63/14 45/57/14
f 44/55/13 43/62/13 45/57/13
f 42/56/15 47/61/15 46/63/15
f 52/64/13 49/59/13 53/65/13
f 48/60/16 45/57/16 49/59/16
f 46/63/16 47/61/16 51/67/16
f 47/61/16 48/60/16 52/64/16
f 54/68/17 55/69/17 56/66/17
f 51/67/15 55/69/15 54/68/15
f 51/67/16 52/64/16 56/66/16
f 50/58/14 54/68/14 53/65/14
