# Blender v2.81 (sub 16) OBJ File: 'sala-pet-v2-0-0-copy.blend'
# www.blender.org
mtllib armarios_gerais1.mtl
o Cube.007_Cube.084
v -12.731445 0.245941 15.846535
v -12.731445 5.044539 15.846535
v -12.731445 0.245941 13.311548
v -12.731445 5.044539 13.311548
v -12.433325 0.245941 15.846535
v -12.433325 5.044539 15.846535
v -12.433325 0.245941 13.311548
v -12.433325 5.044539 13.311548
v -12.725346 5.387641 4.571690
v -12.725346 -0.359706 4.571690
v -12.725346 5.387641 10.319036
v -12.725346 -0.359706 10.319036
v -18.472692 5.387641 4.571690
v -18.472692 -0.359706 4.571690
v -18.472692 5.387641 10.319036
v -18.472692 -0.359706 10.319036
v -12.731445 0.245941 7.439963
v -12.731445 5.044539 7.439963
v -12.731445 0.245941 4.904977
v -12.731445 5.044539 4.904977
v -12.433325 0.245941 7.439963
v -12.433325 5.044539 7.439963
v -12.433325 0.245941 4.904977
v -12.433325 5.044539 4.904977
v -18.509893 5.415764 16.111660
v -18.400717 5.401530 -1.330726
v -12.575103 5.406184 16.148815
v -12.465926 5.391951 -1.293571
v -18.509409 5.714563 16.111420
v -18.400234 5.700330 -1.330965
v -12.574619 5.704984 16.148575
v -12.465443 5.690750 -1.293810
v -12.725346 5.387641 -1.259348
v -12.725346 -0.359706 -1.259348
v -12.725346 5.387641 4.488000
v -12.725346 -0.359706 4.488000
v -18.472692 5.387641 -1.259348
v -18.472692 -0.359706 -1.259348
v -18.472692 5.387641 4.488000
v -18.472692 -0.359706 4.488000
v -12.731445 0.245941 1.608926
v -12.731445 5.044539 1.608926
v -12.731445 0.245941 -0.926061
v -12.731445 5.044539 -0.926061
v -12.433325 0.245941 1.608926
v -12.433325 5.044539 1.608926
v -12.433325 0.245941 -0.926061
v -12.433325 5.044539 -0.926061
v -12.731445 0.245941 4.220841
v -12.731445 5.044539 4.220841
v -12.731445 0.245941 1.685855
v -12.731445 5.044539 1.685855
v -12.433325 0.245941 4.220841
v -12.433325 5.044539 4.220841
v -12.433325 0.245941 1.685855
v -12.433325 5.044539 1.685855
v -12.725346 5.387641 10.366344
v -12.725346 -0.359706 10.366344
v -12.725346 5.387641 16.113691
v -12.725346 -0.359706 16.113691
v -18.472692 5.387641 10.366344
v -18.472692 -0.359706 10.366344
v -18.472692 5.387641 16.113691
v -18.472692 -0.359706 16.113691
v -12.731445 0.245941 13.234618
v -12.731445 5.044539 13.234618
v -12.731445 0.245941 10.699632
v -12.731445 5.044539 10.699632
v -12.433325 0.245941 13.234618
v -12.433325 5.044539 13.234618
v -12.433325 0.245941 10.699632
v -12.433325 5.044539 10.699632
v -12.731445 0.245941 10.051880
v -12.731445 5.044539 10.051880
v -12.731445 0.245941 7.516893
v -12.731445 5.044539 7.516893
v -12.433325 0.245941 10.051880
v -12.433325 5.044539 10.051880
v -12.433325 0.245941 7.516893
v -12.433325 5.044539 7.516893
vt 0.625000 0.000000
vt 0.375000 0.250000
vt 0.375000 0.000000
vt 0.625000 0.250000
vt 0.375000 0.500000
vt 0.625000 0.500000
vt 0.375000 0.750000
vt 0.625000 0.750000
vt 0.375000 1.000000
vt 0.125000 0.750000
vt 0.125000 0.500000
vt 0.875000 0.500000
vt 0.875000 0.500000
vt 0.625000 0.750000
vt 0.625000 0.500000
vt 0.375000 1.000000
vt 0.375000 0.750000
vt 0.625000 0.000000
vt 0.375000 0.250000
vt 0.375000 0.000000
vt 0.375000 0.500000
vt 0.125000 0.750000
vt 0.125000 0.500000
vt 0.625000 0.250000
vt 0.625000 0.000000
vt 0.375000 0.250000
vt 0.375000 0.000000
vt 0.625000 0.250000
vt 0.375000 0.500000
vt 0.625000 0.500000
vt 0.375000 0.750000
vt 0.625000 0.750000
vt 0.375000 1.000000
vt 0.125000 0.750000
vt 0.125000 0.500000
vt 0.875000 0.500000
vt 0.625000 0.000000
vt 0.375000 0.250000
vt 0.375000 0.000000
vt 0.625000 0.250000
vt 0.375000 0.500000
vt 0.625000 0.750000
vt 0.375000 0.750000
vt 0.625000 1.000000
vt 0.375000 1.000000
vt 0.125000 0.500000
vt 0.125000 0.750000
vt 0.875000 0.500000
vt 0.625000 0.500000
vt 0.625000 1.000000
vt 0.875000 0.750000
vt 0.875000 0.750000
vt 0.625000 1.000000
vt 0.625000 1.000000
vt 0.875000 0.750000
vt 0.875000 0.750000
vt 0.875000 0.500000
vt 0.625000 0.750000
vt 0.625000 0.500000
vt 0.375000 1.000000
vt 0.375000 0.750000
vt 0.625000 0.000000
vt 0.375000 0.250000
vt 0.375000 0.000000
vt 0.375000 0.500000
vt 0.125000 0.750000
vt 0.125000 0.500000
vt 0.625000 0.250000
vt 0.625000 0.000000
vt 0.375000 0.250000
vt 0.375000 0.000000
vt 0.625000 0.250000
vt 0.375000 0.500000
vt 0.625000 0.500000
vt 0.375000 0.750000
vt 0.625000 0.750000
vt 0.375000 1.000000
vt 0.125000 0.750000
vt 0.125000 0.500000
vt 0.875000 0.500000
vt 0.625000 0.000000
vt 0.375000 0.250000
vt 0.375000 0.000000
vt 0.625000 0.250000
vt 0.375000 0.500000
vt 0.625000 0.500000
vt 0.375000 0.750000
vt 0.625000 0.750000
vt 0.375000 1.000000
vt 0.125000 0.750000
vt 0.125000 0.500000
vt 0.875000 0.500000
vt 0.875000 0.750000
vt 0.625000 1.000000
vt 0.625000 1.000000
vt 0.875000 0.750000
vt 0.625000 1.000000
vt 0.875000 0.750000
vt 0.875000 0.500000
vt 0.625000 0.750000
vt 0.625000 0.500000
vt 0.375000 1.000000
vt 0.375000 0.750000
vt 0.625000 0.000000
vt 0.375000 0.250000
vt 0.375000 0.000000
vt 0.375000 0.500000
vt 0.125000 0.750000
vt 0.125000 0.500000
vt 0.625000 0.250000
vt 0.625000 0.000000
vt 0.375000 0.250000
vt 0.375000 0.000000
vt 0.625000 0.250000
vt 0.375000 0.500000
vt 0.625000 0.500000
vt 0.375000 0.750000
vt 0.625000 0.750000
vt 0.375000 1.000000
vt 0.125000 0.750000
vt 0.125000 0.500000
vt 0.875000 0.500000
vt 0.625000 0.000000
vt 0.375000 0.250000
vt 0.375000 0.000000
vt 0.625000 0.250000
vt 0.375000 0.500000
vt 0.625000 0.500000
vt 0.375000 0.750000
vt 0.625000 0.750000
vt 0.375000 1.000000
vt 0.125000 0.750000
vt 0.125000 0.500000
vt 0.875000 0.500000
vt 0.875000 0.750000
vt 0.625000 1.000000
vt 0.625000 1.000000
vt 0.875000 0.750000
vt 0.625000 1.000000
vt 0.875000 0.750000
vn -1.0000 0.0000 0.0000
vn 0.0000 0.0000 -1.0000
vn 1.0000 0.0000 0.0000
vn 0.0000 0.0000 1.0000
vn 0.0000 -1.0000 0.0000
vn 0.0000 1.0000 0.0000
vn -0.0016 -1.0000 0.0008
vn 1.0000 -0.0016 0.0063
vn 0.0016 1.0000 -0.0008
vn -1.0000 0.0016 -0.0063
vn -0.0063 0.0008 1.0000
vn 0.0063 -0.0008 -1.0000
usemtl Material.020
s off
f 2/1/1 3/2/1 1/3/1
f 4/4/2 7/5/2 3/2/2
f 8/6/3 5/7/3 7/5/3
f 6/8/4 1/9/4 5/7/4
f 7/5/5 1/10/5 3/11/5
f 4/12/6 6/8/6 8/6/6
f 13/13/6 11/14/6 9/15/6
f 11/14/4 16/16/4 12/17/4
f 15/18/1 14/19/1 16/20/1
f 10/21/5 16/22/5 14/23/5
f 9/15/3 12/17/3 10/21/3
f 13/24/2 10/21/2 14/19/2
f 18/25/1 19/26/1 17/27/1
f 20/28/2 23/29/2 19/26/2
f 24/30/3 21/31/3 23/29/3
f 22/32/4 17/33/4 21/31/4
f 23/29/5 17/34/5 19/35/5
f 20/36/6 22/32/6 24/30/6
f 26/37/7 27/38/7 25/39/7
f 28/40/8 31/41/8 27/38/8
f 31/41/9 30/42/9 29/43/9
f 29/43/10 26/44/10 25/45/10
f 27/46/11 29/43/11 25/47/11
f 28/48/12 30/42/12 32/49/12
f 2/1/1 4/4/1 3/2/1
f 4/4/2 8/6/2 7/5/2
f 8/6/3 6/8/3 5/7/3
f 6/8/4 2/50/4 1/9/4
f 7/5/5 5/7/5 1/10/5
f 4/12/6 2/51/6 6/8/6
f 13/13/6 15/52/6 11/14/6
f 11/14/4 15/53/4 16/16/4
f 15/18/1 13/24/1 14/19/1
f 10/21/5 12/17/5 16/22/5
f 9/15/3 11/14/3 12/17/3
f 13/24/2 9/15/2 10/21/2
f 18/25/1 20/28/1 19/26/1
f 20/28/2 24/30/2 23/29/2
f 24/30/3 22/32/3 21/31/3
f 22/32/4 18/54/4 17/33/4
f 23/29/5 21/31/5 17/34/5
f 20/36/6 18/55/6 22/32/6
f 26/37/7 28/40/7 27/38/7
f 28/40/8 32/49/8 31/41/8
f 31/41/9 32/49/9 30/42/9
f 29/43/10 30/42/10 26/44/10
f 27/46/11 31/41/11 29/43/11
f 28/48/12 26/56/12 30/42/12
usemtl Material.019
f 37/57/6 35/58/6 33/59/6
f 35/58/4 40/60/4 36/61/4
f 39/62/1 38/63/1 40/64/1
f 34/65/5 40/66/5 38/67/5
f 33/59/3 36/61/3 34/65/3
f 37/68/2 34/65/2 38/63/2
f 42/69/1 43/70/1 41/71/1
f 44/72/2 47/73/2 43/70/2
f 48/74/3 45/75/3 47/73/3
f 46/76/4 41/77/4 45/75/4
f 47/73/5 41/78/5 43/79/5
f 44/80/6 46/76/6 48/74/6
f 50/81/1 51/82/1 49/83/1
f 52/84/2 55/85/2 51/82/2
f 56/86/3 53/87/3 55/85/3
f 54/88/4 49/89/4 53/87/4
f 55/85/5 49/90/5 51/91/5
f 52/92/6 54/88/6 56/86/6
f 37/57/6 39/93/6 35/58/6
f 35/58/4 39/94/4 40/60/4
f 39/62/1 37/68/1 38/63/1
f 34/65/5 36/61/5 40/66/5
f 33/59/3 35/58/3 36/61/3
f 37/68/2 33/59/2 34/65/2
f 42/69/1 44/72/1 43/70/1
f 44/72/2 48/74/2 47/73/2
f 48/74/3 46/76/3 45/75/3
f 46/76/4 42/95/4 41/77/4
f 47/73/5 45/75/5 41/78/5
f 44/80/6 42/96/6 46/76/6
f 50/81/1 52/84/1 51/82/1
f 52/84/2 56/86/2 55/85/2
f 56/86/3 54/88/3 53/87/3
f 54/88/4 50/97/4 49/89/4
f 55/85/5 53/87/5 49/90/5
f 52/92/6 50/98/6 54/88/6
usemtl Material.018
f 61/99/6 59/100/6 57/101/6
f 59/100/4 64/102/4 60/103/4
f 63/104/1 62/105/1 64/106/1
f 58/107/5 64/108/5 62/109/5
f 57/101/3 60/103/3 58/107/3
f 61/110/2 58/107/2 62/105/2
f 66/111/1 67/112/1 65/113/1
f 68/114/2 71/115/2 67/112/2
f 72/116/3 69/117/3 71/115/3
f 70/118/4 65/119/4 69/117/4
f 71/115/5 65/120/5 67/121/5
f 68/122/6 70/118/6 72/116/6
f 74/123/1 75/124/1 73/125/1
f 76/126/2 79/127/2 75/124/2
f 80/128/3 77/129/3 79/127/3
f 78/130/4 73/131/4 77/129/4
f 79/127/5 73/132/5 75/133/5
f 76/134/6 78/130/6 80/128/6
f 61/99/6 63/135/6 59/100/6
f 59/100/4 63/136/4 64/102/4
f 63/104/1 61/110/1 62/105/1
f 58/107/5 60/103/5 64/108/5
f 57/101/3 59/100/3 60/103/3
f 61/110/2 57/101/2 58/107/2
f 66/111/1 68/114/1 67/112/1
f 68/114/2 72/116/2 71/115/2
f 72/116/3 70/118/3 69/117/3
f 70/118/4 66/137/4 65/119/4
f 71/115/5 69/117/5 65/120/5
f 68/122/6 66/138/6 70/118/6
f 74/123/1 76/126/1 75/124/1
f 76/126/2 80/128/2 79/127/2
f 80/128/3 78/130/3 77/129/3
f 78/130/4 74/139/4 73/131/4
f 79/127/5 77/129/5 73/132/5
f 76/134/6 74/140/6 78/130/6
