# Blender v2.81 (sub 16) OBJ File: 'sala-pet-v2-0-0.blend'
# www.blender.org
mtllib janela.mtl
o 3d-model.005_3d-model.009
v -5.533104 6.983194 -25.042702
v -5.432416 6.983194 -25.042702
v -5.432416 6.983194 -24.942013
v -5.533104 6.983194 -24.942013
v -6.204342 6.983194 -25.042702
v -6.103655 6.983194 -25.042702
v -6.103655 6.983194 -24.942013
v -6.204342 6.983194 -24.942013
v -6.204342 6.983194 -25.244078
v -6.103655 6.983194 -25.244078
v -6.103655 6.983194 -25.143389
v -6.204342 6.983194 -25.143389
v -5.309349 6.983194 -25.042702
v -5.208661 6.983194 -25.042702
v -5.208661 6.983194 -24.942013
v -5.309349 6.983194 -24.942013
v -5.085593 6.983194 -25.042702
v -4.984906 6.983194 -25.042702
v -4.984906 6.983194 -24.942013
v -5.085593 6.983194 -24.942013
v -5.980601 6.983194 -25.042702
v -5.879913 6.983194 -25.042702
v -5.879913 6.983194 -24.942013
v -5.980601 6.983194 -24.942013
v -6.428098 6.983194 -25.042702
v -6.327410 6.983194 -25.042702
v -6.327410 6.983194 -24.942013
v -6.428098 6.983194 -24.942013
v -5.756846 6.983194 -25.042702
v -5.656158 6.983194 -25.042702
v -5.656158 6.983194 -24.942013
v -5.756846 6.983194 -24.942013
v -6.428098 6.983194 -25.244078
v -6.327410 6.983194 -25.244078
v -6.327410 6.983194 -25.143389
v -6.428098 6.983194 -25.143389
v -5.980601 6.983194 -25.244078
v -5.879913 6.983194 -25.244078
v -5.879913 6.983194 -25.143389
v -5.980601 6.983194 -25.143389
v -6.489074 6.984537 -25.499393
v -6.489074 6.984537 -24.827068
v -6.489074 18.664326 -24.827066
v -6.489074 18.664326 -25.499392
v -6.434018 7.011495 -25.499420
v -6.434018 18.609255 -25.499420
v -6.390561 18.554764 -25.477510
v -6.390561 7.013065 -25.477512
v -1.579979 7.279552 -25.170052
v -1.579979 7.279552 -25.175165
v -6.272690 7.279552 -25.175165
v -6.272690 7.279552 -25.170052
v -1.579979 18.559086 -24.800350
v 3.542534 18.559086 -24.800350
v 3.542534 18.559086 -24.780588
v -1.579979 18.559086 -24.780588
v -0.901799 8.259419 -25.085554
v -1.008153 17.970022 -25.085552
v -1.008153 8.153066 -25.085554
v 2.882492 8.153066 -25.085554
v 2.776125 8.259419 -25.085554
v 2.776125 8.290888 -25.085554
v 2.776125 17.863655 -25.085552
v 2.882492 17.970022 -25.085552
v -0.901799 17.863655 -25.085552
v 2.882492 8.153066 -24.804098
v -1.008153 8.153066 -24.804098
v 3.721786 6.984537 -24.659256
v 3.721786 6.984537 -24.827068
v 3.721786 18.664326 -24.827066
v 3.721786 18.559086 -24.659334
v 3.721786 18.664326 -24.659334
v -0.901799 17.863655 -25.094883
v -0.901799 8.259419 -25.094885
v -1.257711 18.429064 -25.094883
v 3.542534 18.429064 -25.094883
v 2.776125 17.863655 -25.094883
v 3.542534 7.284667 -25.094885
v 2.776125 8.259419 -25.094885
v -1.257711 7.284667 -25.094885
v 3.721786 18.664326 -25.499420
v -6.433978 18.664326 -25.499392
v 3.542534 7.292360 -24.982019
v 3.542534 7.236498 -24.780590
v 3.542534 18.471031 -24.800350
v 3.542534 18.422272 -24.984045
v -5.700165 17.970022 -25.468180
v -1.919565 17.970022 -25.468180
v -1.919565 17.970022 -25.198711
v -5.700165 17.970022 -25.198711
v 3.623259 18.433655 -25.477510
v 3.623259 7.279552 -25.477510
v 3.623259 7.279552 -25.170052
v 3.623259 7.281472 -25.141724
v 3.623259 18.431923 -25.141722
v 3.623259 18.433655 -25.169970
v -5.593799 17.863655 -25.477510
v -2.025932 17.863655 -25.477510
v -2.025932 17.863655 -25.468180
v -5.593799 17.863655 -25.468180
v 3.542534 7.110007 -24.780590
v 3.542534 7.110007 -24.659254
v 3.542534 18.559086 -24.659254
v -5.610593 17.880436 -25.198711
v -5.610593 8.242638 -25.198713
v -2.009151 17.880436 -25.198711
v -1.919565 8.153066 -25.198713
v -2.009151 8.290888 -25.198713
v -2.009151 8.242638 -25.198713
v -5.700165 8.153066 -25.198713
v 3.623259 7.013065 -25.477512
v 3.666716 7.011495 -25.499420
v -6.272690 7.013065 -25.477512
v 3.623259 7.013428 -25.472397
v -6.272690 7.013428 -25.472397
v -6.272690 18.433655 -25.175163
v -1.579979 18.433655 -25.175163
v -1.579979 18.433655 -25.169970
v -6.272690 18.433655 -25.169970
v -0.918581 8.242638 -24.780590
v -1.579979 7.236498 -24.780590
v 2.792907 8.242638 -24.780590
v 2.792907 17.880436 -24.780588
v -0.918581 17.880436 -24.780588
v 3.623259 7.013428 -25.477512
v 3.623259 18.554764 -25.477510
v 3.666716 18.609255 -25.499420
v -1.008153 17.970022 -24.804096
v -1.579979 7.292360 -24.982019
v -1.579979 18.471031 -24.800350
v -1.579979 18.422272 -24.984045
v -6.309837 7.236498 -24.780590
v -6.309837 7.110007 -24.780590
v -0.918581 17.880436 -24.804096
v 2.792907 17.880436 -24.804096
v -1.257711 18.433655 -25.169970
v 3.542534 18.664326 -24.659334
v -6.489074 18.664326 -24.659252
v -6.309837 7.110007 -24.659254
v -6.309837 18.559086 -24.659254
v -6.309837 7.241989 -24.800365
v -6.309837 18.559086 -24.800350
v -6.272690 7.013428 -25.477512
v -1.919565 8.153067 -25.468182
v -6.272690 7.279552 -25.477510
v -6.272690 7.228067 -25.477512
v -6.387917 18.301769 -25.477510
v -5.610593 8.242638 -25.175165
v -2.009151 8.242638 -25.175165
v -2.009151 17.880436 -25.175165
v -5.610593 17.880436 -25.175165
v -0.918581 8.242638 -24.804098
v 2.882492 17.970022 -24.804096
v 2.792907 8.313965 -24.804098
v 2.792907 8.242638 -24.804098
v -6.272690 7.241989 -24.800365
v -6.272690 18.471031 -24.800350
v -5.700165 8.153067 -25.468182
v 3.542534 7.281472 -25.141724
v 3.542534 18.431923 -25.141722
v -5.593799 8.259419 -25.468182
v -2.025932 8.259419 -25.468182
v -2.025932 8.313965 -25.468182
v -1.257711 7.279552 -25.170052
v -1.257711 7.279552 -25.175165
v -1.257711 18.433655 -25.175163
v -6.272690 7.292360 -24.982019
v -6.309837 6.984537 -24.659256
v -6.489074 6.984537 -24.659256
v -1.257711 7.279552 -25.477510
v -1.257711 18.433655 -25.477510
v -6.434018 18.609428 -25.499420
v 3.721786 6.984537 -25.499420
v -6.433978 6.984537 -25.499393
v -6.272690 18.422272 -24.984045
v -6.489074 7.110007 -24.659336
v -6.272690 7.013240 -25.477512
v -2.025932 8.259419 -25.477510
v -5.593799 8.259419 -25.477510
vt 0.000000 0.000000
vt 0.000000 0.000000
vt 0.000000 0.000000
vt 0.000000 0.000000
vt 0.000000 0.000000
vt 0.000000 0.000000
vt 0.000000 0.000000
vt 0.000000 0.000000
vt 0.000000 0.000000
vt 0.000000 0.000000
vt 0.000000 0.000000
vt 0.000000 0.000000
vt 0.000000 0.000000
vt 0.000000 0.000000
vt 0.000000 0.000000
vt 0.000000 0.000000
vt 0.000000 0.000000
vt 0.000000 0.000000
vt 0.000000 0.000000
vt 0.000000 0.000000
vt 0.000000 0.000000
vt 0.000000 0.000000
vt 0.000000 0.000000
vt 0.000000 0.000000
vt 0.000000 0.000000
vt 0.000000 0.000000
vt 0.000000 0.000000
vt 0.000000 0.000000
vt 0.000000 0.000000
vt 0.000000 0.000000
vt 0.000000 0.000000
vt 0.000000 0.000000
vt 0.000000 0.000000
vt 0.000000 0.000000
vt 0.000000 0.000000
vt 0.000000 0.000000
vt 0.000000 0.000000
vt 0.000000 0.000000
vt 0.000000 0.000000
vt 0.000000 0.000000
vt 0.000000 0.000000
vt 0.000000 0.000000
vt 0.000000 0.000000
vt 0.000000 0.000000
vt 0.000000 0.000000
vt 0.000000 0.000000
vt 0.000000 0.000000
vt 0.000000 0.000000
vt 0.000000 0.000000
vt 0.000000 0.000000
vt 0.000000 0.000000
vt 0.000000 0.000000
vt 0.000000 0.000000
vt 0.000000 0.000000
vt 0.000000 0.000000
vt 0.000000 0.000000
vt 0.000000 0.000000
vt 0.000000 0.000000
vt 0.000000 0.000000
vt 0.000000 0.000000
vt 0.000000 0.000000
vt 0.000000 0.000000
vt 0.000000 0.000000
vt 0.000000 0.000000
vt 0.000000 0.000000
vt 0.000000 0.000000
vt 0.000000 0.000000
vt 0.000000 0.000000
vt 0.000000 0.000000
vt 0.000000 0.000000
vt 0.000000 0.000000
vt 0.000000 0.000000
vt 0.000000 0.000000
vt 0.000000 0.000000
vt 0.000000 0.000000
vt 0.000000 0.000000
vt 0.000000 0.000000
vt 0.000000 0.000000
vt 0.000000 0.000000
vt 0.000000 0.000000
vt 0.000000 0.000000
vt 0.000000 0.000000
vt 0.000000 0.000000
vt 0.000000 0.000000
vt 0.000000 0.000000
vt 0.000000 0.000000
vt 0.000000 0.000000
vt 0.000000 0.000000
vt 0.000000 0.000000
vt 0.000000 0.000000
vt 0.000000 0.000000
vt 0.000000 0.000000
vt 0.000000 0.000000
vt 0.000000 0.000000
vt 0.000000 0.000000
vt 0.000000 0.000000
vt 0.000000 0.000000
vt 0.000000 0.000000
vt 0.000000 0.000000
vt 0.000000 0.000000
vt 0.000000 0.000000
vt 0.000000 0.000000
vt 0.000000 0.000000
vt 0.000000 0.000000
vt 0.000000 0.000000
vt 0.000000 0.000000
vt 0.000000 0.000000
vt 0.000000 0.000000
vt 0.000000 0.000000
vt 0.000000 0.000000
vt 0.000000 0.000000
vt 0.000000 0.000000
vt 0.000000 0.000000
vt 0.000000 0.000000
vt 0.000000 0.000000
vt 0.000000 0.000000
vt 0.000000 0.000000
vt 0.000000 0.000000
vt 0.000000 0.000000
vt 0.000000 0.000000
vt 0.000000 0.000000
vt 0.000000 0.000000
vt 0.000000 0.000000
vt 0.000000 0.000000
vt 0.000000 0.000000
vt 0.000000 0.000000
vt 0.000000 0.000000
vt 0.000000 0.000000
vt 0.000000 0.000000
vt 0.000000 0.000000
vt 0.000000 0.000000
vt 0.000000 0.000000
vt 0.000000 0.000000
vt 0.000000 0.000000
vt 0.000000 0.000000
vt 0.000000 0.000000
vt 0.000000 0.000000
vt 0.000000 0.000000
vt 0.000000 0.000000
vt 0.000000 0.000000
vt 0.000000 0.000000
vt 0.000000 0.000000
vt 0.000000 0.000000
vt 0.000000 0.000000
vt 0.000000 0.000000
vt 0.000000 0.000000
vt 0.000000 0.000000
vt 0.000000 0.000000
vt 0.000000 0.000000
vt 0.000000 0.000000
vt 0.000000 0.000000
vt 0.000000 0.000000
vt 0.000000 0.000000
vt 0.000000 0.000000
vt 0.000000 0.000000
vt 0.000000 0.000000
vt 0.000000 0.000000
vt 0.000000 0.000000
vt 0.000000 0.000000
vt 0.000000 0.000000
vt 0.000000 0.000000
vt 0.000000 0.000000
vt 0.000000 0.000000
vt 0.000000 0.000000
vt 0.000000 0.000000
vt 0.000000 0.000000
vt 0.000000 0.000000
vt 0.000000 0.000000
vt 0.000000 0.000000
vt 0.000000 0.000000
vt 0.000000 0.000000
vt 0.000000 0.000000
vt 0.000000 0.000000
vt 0.000000 0.000000
vt 0.000000 0.000000
vt 0.000000 0.000000
vt 0.000000 0.000000
vt 0.000000 0.000000
vt 0.000000 0.000000
vn 0.0000 -1.0000 0.0000
vn -1.0000 0.0000 0.0000
vn 0.4501 0.0000 -0.8930
vn 0.4502 0.0000 -0.8929
vn 0.0000 1.0000 0.0003
vn 0.0000 1.0000 0.0000
vn -0.0000 -0.0000 1.0000
vn 1.0000 -0.0000 0.0000
vn 0.0000 0.0000 -1.0000
vn 0.0000 1.0000 0.0011
vn -1.0000 -0.0003 0.0000
vn 0.0000 0.9974 -0.0715
vn 0.0000 0.9975 -0.0712
vn -0.0000 0.9975 -0.0710
vn -0.4501 0.0000 -0.8930
vn -0.4496 0.0000 -0.8932
vn -0.4502 0.0000 -0.8929
vn -0.4504 0.0000 -0.8928
vn -1.0000 0.0001 0.0000
vn -1.0000 0.0003 0.0000
vn 0.0000 -0.9981 -0.0611
vn 0.0000 -0.9981 -0.0612
vn 0.0000 0.9636 0.2672
vn 0.0051 0.0000 -1.0000
vn 0.0002 0.0000 -1.0000
vn -0.0001 -0.0000 1.0000
vn 1.0000 0.0001 0.0000
vn 0.0000 0.9977 -0.0680
vn 0.0000 -0.9665 0.2566
vn 0.2889 -0.0000 -0.9574
vn -0.0002 0.0004 -1.0000
vn 0.0000 -0.0001 -1.0000
vn 0.0000 0.0002 -1.0000
vn 0.0000 -0.0003 -1.0000
vn 0.0001 -0.0000 -1.0000
vn 0.0003 0.0000 -1.0000
vn -0.1930 -0.0003 -0.9812
vn -0.0000 -0.9981 -0.0610
vn 0.0000 -0.9981 -0.0609
vn -0.0001 0.0001 1.0000
vn -0.0005 -0.0000 1.0000
vn 0.0300 0.0008 0.9995
vn -0.0003 -0.0000 1.0000
vn 0.0002 0.0004 1.0000
vn 0.0002 -0.0004 1.0000
vn -0.0001 -0.0001 1.0000
vn 0.0000 0.9977 -0.0679
vn 0.0044 0.0000 -1.0000
vn 0.6908 0.0000 -0.7231
vn 0.0000 0.9977 -0.0677
vn 0.0000 0.9977 -0.0678
vn 0.0000 -0.3731 -0.9278
vn 0.0000 -0.3730 -0.9278
vn 0.0000 0.9636 0.2674
vn 0.0000 0.9636 0.2675
vn 1.0000 0.0002 0.0000
vn 1.0000 0.0036 0.0000
vn 1.0000 -0.0001 0.0000
vn 1.0000 -0.0018 0.0000
vn -0.0000 -1.0000 -0.0008
vn 0.0000 -0.9665 0.2565
vn -1.0000 -0.0001 0.0000
vn -0.4491 0.0000 -0.8935
usemtl black.005
s 1
f 2/1/1 4/2/1 1/3/1
f 2/1/1 3/4/1 4/2/1
usemtl Putty.005
f 6/5/1 8/6/1 5/7/1
f 6/5/1 7/8/1 8/6/1
usemtl Brown.005
f 10/9/1 12/10/1 9/11/1
f 10/9/1 11/12/1 12/10/1
usemtl Red.005
f 14/13/1 16/14/1 13/15/1
f 14/13/1 15/16/1 16/14/1
usemtl Hartford_Green.005
f 18/17/1 20/18/1 17/19/1
f 18/17/1 19/20/1 20/18/1
usemtl Poplar_White.005
f 22/21/1 24/22/1 21/23/1
f 22/21/1 23/24/1 24/22/1
usemtl Hemlock.005
f 26/25/1 28/26/1 25/27/1
f 26/25/1 27/28/1 28/26/1
usemtl Morning_Sky_Gray.005
f 30/29/1 32/30/1 29/31/1
f 30/29/1 31/32/1 32/30/1
usemtl Tan.005
f 34/33/1 36/34/1 33/35/1
f 34/33/1 35/36/1 36/34/1
usemtl White.005
f 38/37/1 40/38/1 37/39/1
f 38/37/1 39/40/1 40/38/1
usemtl Color_000.005
f 42/41/2 44/42/2 41/43/2
f 45/44/3 47/45/4 48/46/3
f 50/47/5 52/48/6 49/49/5
f 54/50/1 56/51/1 53/52/1
f 57/53/7 59/54/7 60/55/7
f 61/56/7 60/55/7 62/57/7
f 62/57/7 64/58/7 63/59/7
f 63/59/7 58/60/7 65/61/7
f 65/61/7 58/60/7 57/53/7
f 60/55/6 67/62/6 66/63/6
f 69/64/8 71/65/8 68/66/8
f 71/65/8 70/67/8 72/68/8
f 73/69/9 75/70/9 76/71/9
f 77/72/9 76/71/9 78/73/9
f 79/74/9 78/73/9 74/75/9
f 74/75/9 80/76/9 75/70/9
f 70/67/6 82/77/10 44/42/6
f 70/67/6 44/42/6 43/78/6
f 84/79/2 85/80/2 83/81/2
f 85/80/2 55/82/2 54/50/2
f 83/81/2 86/83/2 76/71/2
f 83/81/2 76/71/2 78/73/2
f 88/84/1 90/85/1 87/86/1
f 92/87/2 94/88/2 91/89/2
f 91/89/2 95/90/2 96/91/11
f 98/92/1 100/93/1 97/94/1
f 102/95/2 84/79/2 101/96/2
f 84/79/2 103/97/2 55/82/2
f 104/98/9 90/85/9 89/99/9
f 106/100/9 89/99/9 107/101/9
f 108/102/9 107/101/9 109/103/9
f 109/103/9 110/104/9 105/105/9
f 105/105/9 110/104/9 90/85/9
f 112/106/12 113/107/13 111/108/13
f 113/107/13 45/44/12 48/46/12
f 111/108/13 115/109/14 114/110/14
f 117/111/1 119/112/1 116/113/1
f 120/114/7 121/115/7 84/79/7
f 122/116/7 84/79/7 123/117/7
f 123/117/7 55/82/7 124/118/7
f 124/118/7 56/51/7 120/114/7
f 112/106/15 125/119/16 92/87/17
f 112/106/15 91/89/18 126/120/17
f 112/106/15 126/120/17 127/121/17
f 67/62/8 58/60/8 128/122/8
f 121/115/2 130/123/2 129/124/2
f 130/123/2 56/51/2 53/52/2
f 129/124/2 131/125/2 117/111/2
f 129/124/2 50/47/2 49/49/19
f 117/111/2 131/125/2 118/126/20
f 133/127/7 121/115/7 132/128/7
f 121/115/7 101/96/7 84/79/7
f 135/129/1 124/118/1 134/130/1
f 75/70/21 86/83/22 131/125/21
f 75/70/21 118/126/21 136/131/21
f 77/72/1 65/61/1 73/69/1
f 70/67/6 137/132/6 72/68/6
f 137/132/6 43/78/6 138/133/6
f 139/134/8 132/128/8 140/135/8
f 140/135/8 141/136/8 142/137/8
f 125/119/1 115/109/1 143/138/1
f 107/101/2 88/84/2 144/139/2
f 83/81/23 121/115/23 84/79/23
f 74/75/8 65/61/8 57/53/8
f 145/140/24 146/141/9 147/142/25
f 101/96/6 139/134/6 102/95/6
f 148/143/7 51/144/7 50/47/7
f 149/145/7 50/47/7 150/146/7
f 150/146/7 117/111/7 151/147/7
f 151/147/7 116/113/7 148/143/7
f 134/130/9 128/122/9 153/148/9
f 135/129/9 153/148/9 66/63/9
f 154/149/9 66/63/9 155/150/9
f 155/150/9 67/62/9 152/151/9
f 152/151/9 67/62/9 128/122/9
f 141/136/7 157/152/26 142/137/7
f 53/52/7 157/152/26 130/123/7
f 144/139/6 110/104/6 107/101/6
f 152/151/8 124/118/8 120/114/8
f 159/153/9 95/90/9 94/88/9
f 161/154/7 158/155/7 144/139/7
f 162/156/7 144/139/7 163/157/7
f 163/157/7 88/84/7 99/158/7
f 99/158/7 87/86/7 100/93/7
f 100/93/7 87/86/7 161/154/7
f 165/159/8 80/76/8 164/160/8
f 75/70/8 166/161/8 136/131/27
f 49/49/28 167/162/28 129/124/28
f 86/83/29 130/123/29 131/125/29
f 64/58/1 128/122/1 58/60/1
f 69/64/1 168/163/1 42/41/1
f 42/41/1 168/163/1 169/164/1
f 170/165/8 166/161/8 165/159/8
f 158/155/8 90/85/8 110/104/8
f 146/141/9 143/138/30 147/142/25
f 172/166/31 44/42/32 82/77/33
f 172/166/31 127/121/9 46/167/34
f 127/121/9 81/168/9 173/169/35
f 112/106/9 173/169/35 174/170/36
f 45/44/37 174/170/36 44/42/32
f 44/42/32 174/170/36 41/43/9
f 45/44/37 44/42/32 46/167/34
f 96/91/21 160/171/38 136/131/21
f 75/70/21 160/171/38 76/71/39
f 160/171/2 78/73/2 76/71/2
f 118/126/21 175/172/21 119/112/21
f 130/123/7 54/50/7 53/52/7
f 168/163/40 102/95/41 139/134/7
f 103/97/42 68/66/43 137/132/44
f 137/132/44 71/65/7 72/68/7
f 140/135/45 137/132/44 138/133/7
f 140/135/45 176/173/46 168/163/40
f 168/163/40 176/173/46 169/164/7
f 140/135/45 168/163/40 139/134/7
f 80/76/47 49/49/47 129/124/28
f 80/76/28 83/81/28 78/73/28
f 48/46/9 147/142/25 113/107/48
f 147/142/25 177/174/49 113/107/48
f 154/149/2 122/116/2 123/117/2
f 154/149/2 123/117/2 135/129/2
f 115/109/8 177/174/8 143/138/8
f 79/74/2 62/57/2 77/72/2
f 77/72/2 62/57/2 63/59/2
f 91/89/1 166/161/1 171/175/1
f 166/161/1 96/91/1 136/131/1
f 178/176/2 163/157/2 98/92/2
f 98/92/2 163/157/2 99/158/2
f 125/119/9 146/141/9 145/140/24
f 170/165/9 145/140/24 179/177/9
f 179/177/9 147/142/25 97/94/9
f 97/94/9 47/45/9 171/175/9
f 171/175/9 126/120/9 91/89/9
f 98/92/9 171/175/9 170/165/9
f 178/176/9 170/165/9 179/177/9
f 125/119/9 170/165/9 92/87/9
f 93/178/50 159/153/51 94/88/50
f 159/153/51 80/76/47 78/73/28
f 46/167/52 126/120/53 47/45/52
f 106/100/1 151/147/1 104/98/1
f 178/176/6 161/154/6 162/156/6
f 179/177/8 100/93/8 161/154/8
f 129/124/23 156/179/54 121/115/23
f 156/179/54 132/128/55 121/115/23
f 51/144/56 167/162/8 52/48/57
f 175/172/8 116/113/58 119/112/59
f 167/162/8 157/152/8 156/179/8
f 56/51/1 103/97/1 140/135/1
f 56/51/1 142/137/1 53/52/1
f 42/41/2 176/173/2 43/78/2
f 43/78/2 176/173/2 138/133/2
f 155/150/6 120/114/6 122/116/6
f 125/119/2 111/108/2 114/110/2
f 173/169/8 70/67/8 69/64/8
f 149/145/2 108/102/2 109/103/2
f 108/102/2 150/146/2 106/100/2
f 79/74/6 57/53/6 61/56/6
f 109/103/6 148/143/6 149/145/6
f 174/170/60 69/64/1 41/43/1
f 41/43/1 69/64/1 42/41/1
f 66/63/2 64/58/2 60/55/2
f 105/105/8 151/147/8 148/143/8
f 92/87/6 165/159/6 93/178/6
f 93/178/6 165/159/6 164/160/6
f 131/125/61 157/152/29 175/172/29
f 42/41/2 43/78/2 44/42/2
f 45/44/3 46/167/4 47/45/4
f 50/47/5 51/144/6 52/48/6
f 54/50/1 55/82/1 56/51/1
f 57/53/7 58/60/7 59/54/7
f 61/56/7 57/53/7 60/55/7
f 62/57/7 60/55/7 64/58/7
f 63/59/7 64/58/7 58/60/7
f 60/55/6 59/54/6 67/62/6
f 69/64/8 70/67/8 71/65/8
f 73/69/9 74/75/9 75/70/9
f 77/72/9 73/69/9 76/71/9
f 79/74/9 77/72/9 78/73/9
f 74/75/9 78/73/9 80/76/9
f 70/67/6 81/168/6 82/77/10
f 84/79/2 55/82/2 85/80/2
f 83/81/2 85/80/2 86/83/2
f 88/84/1 89/99/1 90/85/1
f 92/87/2 93/178/62 94/88/2
f 91/89/2 94/88/2 95/90/2
f 98/92/1 99/158/1 100/93/1
f 102/95/2 103/97/2 84/79/2
f 104/98/9 105/105/9 90/85/9
f 106/100/9 104/98/9 89/99/9
f 108/102/9 106/100/9 107/101/9
f 109/103/9 107/101/9 110/104/9
f 112/106/12 45/44/12 113/107/13
f 111/108/13 113/107/13 115/109/14
f 117/111/1 118/126/1 119/112/1
f 120/114/7 56/51/7 121/115/7
f 122/116/7 120/114/7 84/79/7
f 123/117/7 84/79/7 55/82/7
f 124/118/7 55/82/7 56/51/7
f 112/106/15 111/108/63 125/119/16
f 112/106/15 92/87/17 91/89/18
f 67/62/8 59/54/8 58/60/8
f 121/115/2 56/51/2 130/123/2
f 129/124/2 130/123/2 131/125/2
f 129/124/2 117/111/2 50/47/2
f 133/127/7 101/96/7 121/115/7
f 135/129/1 123/117/1 124/118/1
f 75/70/21 76/71/22 86/83/22
f 75/70/21 131/125/21 118/126/21
f 77/72/1 63/59/1 65/61/1
f 70/67/6 43/78/6 137/132/6
f 139/134/8 133/127/8 132/128/8
f 140/135/8 132/128/8 141/136/8
f 125/119/1 114/110/1 115/109/1
f 107/101/2 89/99/2 88/84/2
f 83/81/23 129/124/23 121/115/23
f 74/75/8 73/69/8 65/61/8
f 101/96/6 133/127/6 139/134/6
f 148/143/7 116/113/7 51/144/7
f 149/145/7 148/143/7 50/47/7
f 150/146/7 50/47/7 117/111/7
f 151/147/7 117/111/7 116/113/7
f 134/130/9 152/151/9 128/122/9
f 135/129/9 134/130/9 153/148/9
f 154/149/9 135/129/9 66/63/9
f 155/150/9 66/63/9 67/62/9
f 141/136/7 156/179/7 157/152/26
f 53/52/7 142/137/7 157/152/26
f 144/139/6 158/155/6 110/104/6
f 152/151/8 134/130/8 124/118/8
f 159/153/9 160/171/9 95/90/9
f 161/154/7 87/86/7 158/155/7
f 162/156/7 161/154/7 144/139/7
f 163/157/7 144/139/7 88/84/7
f 99/158/7 88/84/7 87/86/7
f 165/159/8 166/161/8 80/76/8
f 75/70/8 80/76/8 166/161/8
f 49/49/28 52/48/28 167/162/28
f 86/83/29 85/80/29 130/123/29
f 64/58/1 153/148/1 128/122/1
f 69/64/1 68/66/1 168/163/1
f 170/165/8 171/175/8 166/161/8
f 158/155/8 87/86/8 90/85/8
f 172/166/31 46/167/34 44/42/32
f 172/166/31 82/77/33 127/121/9
f 127/121/9 82/77/33 81/168/9
f 112/106/9 127/121/9 173/169/35
f 45/44/37 112/106/9 174/170/36
f 96/91/21 95/90/22 160/171/38
f 75/70/21 136/131/21 160/171/38
f 160/171/2 159/153/2 78/73/2
f 118/126/21 131/125/21 175/172/21
f 130/123/7 85/80/7 54/50/7
f 168/163/40 68/66/43 102/95/41
f 103/97/42 102/95/41 68/66/43
f 137/132/44 68/66/43 71/65/7
f 140/135/45 103/97/42 137/132/44
f 140/135/45 138/133/7 176/173/46
f 80/76/47 164/160/47 49/49/47
f 80/76/28 129/124/28 83/81/28
f 48/46/9 47/45/9 147/142/25
f 147/142/25 143/138/30 177/174/49
f 154/149/2 155/150/2 122/116/2
f 115/109/8 113/107/8 177/174/8
f 79/74/2 61/56/2 62/57/2
f 91/89/1 96/91/1 166/161/1
f 178/176/2 162/156/2 163/157/2
f 125/119/9 143/138/30 146/141/9
f 170/165/9 125/119/9 145/140/24
f 179/177/9 145/140/24 147/142/25
f 97/94/9 147/142/25 47/45/9
f 171/175/9 47/45/9 126/120/9
f 98/92/9 97/94/9 171/175/9
f 178/176/9 98/92/9 170/165/9
f 93/178/50 164/160/47 159/153/51
f 159/153/51 164/160/47 80/76/47
f 46/167/52 127/121/53 126/120/53
f 106/100/1 150/146/1 151/147/1
f 178/176/6 179/177/6 161/154/6
f 179/177/8 97/94/8 100/93/8
f 129/124/23 167/162/23 156/179/54
f 156/179/54 141/136/55 132/128/55
f 51/144/56 116/113/58 167/162/8
f 175/172/8 167/162/8 116/113/58
f 167/162/8 175/172/8 157/152/8
f 56/51/1 55/82/1 103/97/1
f 56/51/1 140/135/1 142/137/1
f 42/41/2 169/164/2 176/173/2
f 155/150/6 152/151/6 120/114/6
f 173/169/8 81/168/8 70/67/8
f 149/145/2 150/146/2 108/102/2
f 79/74/6 74/75/6 57/53/6
f 109/103/6 105/105/6 148/143/6
f 174/170/60 173/169/1 69/64/1
f 66/63/2 153/148/2 64/58/2
f 105/105/8 104/98/8 151/147/8
f 92/87/6 170/165/6 165/159/6
f 131/125/61 130/123/61 157/152/29
usemtl Translucent_Glass_Blue.005
f 161/154/9 163/157/9 162/156/9
f 163/157/9 100/93/9 99/158/9
f 105/105/7 108/102/7 104/98/7
f 104/98/7 108/102/7 106/100/7
f 57/53/9 63/59/9 61/56/9
f 61/56/9 63/59/9 62/57/2
f 152/151/7 154/149/7 134/130/7
f 134/130/7 154/149/7 135/129/7
f 161/154/9 100/93/9 163/157/9
f 105/105/7 109/103/7 108/102/7
f 57/53/9 65/61/9 63/59/9
f 152/151/7 155/150/7 154/149/7
