# Blender v2.81 (sub 16) OBJ File: 'sala-pet-v2-0-0-copy.blend'
# www.blender.org
mtllib handles_secretario.mtl
o Cube.067_Cube.012
v -11.248631 4.655354 -11.720749
v -11.248631 4.655309 -11.783186
v -11.248631 4.769765 -11.720831
v -11.248631 4.769720 -11.783268
v -11.123412 4.655354 -11.720749
v -11.123412 4.655309 -11.783186
v -11.123412 4.769765 -11.720831
v -11.123412 4.769720 -11.783268
v -11.183875 4.655944 -10.894892
v -11.183875 4.655350 -11.722312
v -11.183875 4.770355 -10.894974
v -11.183875 4.769761 -11.722394
v -11.123522 4.655944 -10.894892
v -11.123522 4.655350 -11.722312
v -11.123522 4.770355 -10.894974
v -11.123522 4.769761 -11.722394
v -11.248648 4.655991 -10.833493
v -11.248648 4.655946 -10.895929
v -11.248648 4.770402 -10.833575
v -11.248648 4.770357 -10.896011
v -11.123428 4.655991 -10.833493
v -11.123428 4.655946 -10.895929
v -11.123428 4.770402 -10.833575
v -11.123428 4.770357 -10.896011
vt 0.625000 0.000000
vt 0.375000 0.000000
vt 0.375000 0.250000
vt 0.625000 0.250000
vt 0.375000 0.500000
vt 0.625000 0.500000
vt 0.375000 0.750000
vt 0.625000 0.750000
vt 0.375000 1.000000
vt 0.125000 0.500000
vt 0.125000 0.750000
vt 0.875000 0.500000
vt 0.625000 0.000000
vt 0.375000 0.000000
vt 0.375000 0.250000
vt 0.625000 0.250000
vt 0.375000 0.500000
vt 0.625000 0.500000
vt 0.375000 0.750000
vt 0.625000 0.750000
vt 0.375000 1.000000
vt 0.125000 0.500000
vt 0.125000 0.750000
vt 0.875000 0.500000
vt 0.625000 0.000000
vt 0.375000 0.000000
vt 0.375000 0.250000
vt 0.625000 0.250000
vt 0.375000 0.500000
vt 0.625000 0.500000
vt 0.375000 0.750000
vt 0.625000 0.750000
vt 0.375000 1.000000
vt 0.125000 0.500000
vt 0.125000 0.750000
vt 0.875000 0.500000
vt 0.625000 1.000000
vt 0.875000 0.750000
vt 0.625000 1.000000
vt 0.875000 0.750000
vt 0.625000 1.000000
vt 0.875000 0.750000
vn -1.0000 -0.0000 0.0000
vn 0.0000 1.0000 -0.0007
vn 1.0000 0.0000 0.0000
vn 0.0000 -1.0000 0.0007
vn 0.0000 0.0007 1.0000
vn 0.0000 -0.0007 -1.0000
usemtl None
s off
f 2/1/1 1/2/1 3/3/1
f 4/4/2 3/3/2 7/5/2
f 8/6/3 7/5/3 5/7/3
f 6/8/4 5/7/4 1/9/4
f 7/5/5 3/10/5 1/11/5
f 4/12/6 8/6/6 6/8/6
f 10/13/1 9/14/1 11/15/1
f 12/16/2 11/15/2 15/17/2
f 16/18/3 15/17/3 13/19/3
f 14/20/4 13/19/4 9/21/4
f 15/17/5 11/22/5 9/23/5
f 12/24/6 16/18/6 14/20/6
f 18/25/1 17/26/1 19/27/1
f 20/28/2 19/27/2 23/29/2
f 24/30/3 23/29/3 21/31/3
f 22/32/4 21/31/4 17/33/4
f 23/29/5 19/34/5 17/35/5
f 20/36/6 24/30/6 22/32/6
f 2/1/1 3/3/1 4/4/1
f 4/4/2 7/5/2 8/6/2
f 8/6/3 5/7/3 6/8/3
f 6/8/4 1/9/4 2/37/4
f 7/5/5 1/11/5 5/7/5
f 4/12/6 6/8/6 2/38/6
f 10/13/1 11/15/1 12/16/1
f 12/16/2 15/17/2 16/18/2
f 16/18/3 13/19/3 14/20/3
f 14/20/4 9/21/4 10/39/4
f 15/17/5 9/23/5 13/19/5
f 12/24/6 14/20/6 10/40/6
f 18/25/1 19/27/1 20/28/1
f 20/28/2 23/29/2 24/30/2
f 24/30/3 21/31/3 22/32/3
f 22/32/4 17/33/4 18/41/4
f 23/29/5 17/35/5 21/31/5
f 20/36/6 22/32/6 18/42/6
o Cube.068_Cube.013
v -11.248631 2.618263 -11.719286
v -11.248631 2.618219 -11.781723
v -11.248631 2.732675 -11.719368
v -11.248631 2.732630 -11.781805
v -11.123412 2.618263 -11.719286
v -11.123412 2.618219 -11.781723
v -11.123412 2.732675 -11.719368
v -11.123412 2.732630 -11.781805
v -11.183875 2.618854 -10.893429
v -11.183875 2.618260 -11.720849
v -11.183875 2.733265 -10.893511
v -11.183875 2.732671 -11.720931
v -11.123522 2.618854 -10.893429
v -11.123522 2.618260 -11.720849
v -11.123522 2.733265 -10.893511
v -11.123522 2.732671 -11.720931
v -11.248648 2.618901 -10.832030
v -11.248648 2.618856 -10.894466
v -11.248648 2.733312 -10.832112
v -11.248648 2.733267 -10.894548
v -11.123428 2.618901 -10.832030
v -11.123428 2.618856 -10.894466
v -11.123428 2.733312 -10.832112
v -11.123428 2.733267 -10.894548
vt 0.625000 0.000000
vt 0.375000 0.000000
vt 0.375000 0.250000
vt 0.625000 0.250000
vt 0.375000 0.500000
vt 0.625000 0.500000
vt 0.375000 0.750000
vt 0.625000 0.750000
vt 0.375000 1.000000
vt 0.125000 0.500000
vt 0.125000 0.750000
vt 0.875000 0.500000
vt 0.625000 0.000000
vt 0.375000 0.000000
vt 0.375000 0.250000
vt 0.625000 0.250000
vt 0.375000 0.500000
vt 0.625000 0.500000
vt 0.375000 0.750000
vt 0.625000 0.750000
vt 0.375000 1.000000
vt 0.125000 0.500000
vt 0.125000 0.750000
vt 0.875000 0.500000
vt 0.625000 0.000000
vt 0.375000 0.000000
vt 0.375000 0.250000
vt 0.625000 0.250000
vt 0.375000 0.500000
vt 0.625000 0.500000
vt 0.375000 0.750000
vt 0.625000 0.750000
vt 0.375000 1.000000
vt 0.125000 0.500000
vt 0.125000 0.750000
vt 0.875000 0.500000
vt 0.625000 1.000000
vt 0.875000 0.750000
vt 0.625000 1.000000
vt 0.875000 0.750000
vt 0.625000 1.000000
vt 0.875000 0.750000
vn -1.0000 -0.0000 0.0000
vn 0.0000 1.0000 -0.0007
vn 1.0000 0.0000 0.0000
vn 0.0000 -1.0000 0.0007
vn 0.0000 0.0007 1.0000
vn 0.0000 -0.0007 -1.0000
usemtl None
s off
f 26/43/7 25/44/7 27/45/7
f 28/46/8 27/45/8 31/47/8
f 32/48/9 31/47/9 29/49/9
f 30/50/10 29/49/10 25/51/10
f 31/47/11 27/52/11 25/53/11
f 28/54/12 32/48/12 30/50/12
f 34/55/7 33/56/7 35/57/7
f 36/58/8 35/57/8 39/59/8
f 40/60/9 39/59/9 37/61/9
f 38/62/10 37/61/10 33/63/10
f 39/59/11 35/64/11 33/65/11
f 36/66/12 40/60/12 38/62/12
f 42/67/7 41/68/7 43/69/7
f 44/70/8 43/69/8 47/71/8
f 48/72/9 47/71/9 45/73/9
f 46/74/10 45/73/10 41/75/10
f 47/71/11 43/76/11 41/77/11
f 44/78/12 48/72/12 46/74/12
f 26/43/7 27/45/7 28/46/7
f 28/46/8 31/47/8 32/48/8
f 32/48/9 29/49/9 30/50/9
f 30/50/10 25/51/10 26/79/10
f 31/47/11 25/53/11 29/49/11
f 28/54/12 30/50/12 26/80/12
f 34/55/7 35/57/7 36/58/7
f 36/58/8 39/59/8 40/60/8
f 40/60/9 37/61/9 38/62/9
f 38/62/10 33/63/10 34/81/10
f 39/59/11 33/65/11 37/61/11
f 36/66/12 38/62/12 34/82/12
f 42/67/7 43/69/7 44/70/7
f 44/70/8 47/71/8 48/72/8
f 48/72/9 45/73/9 46/74/9
f 46/74/10 41/75/10 42/83/10
f 47/71/11 41/77/11 45/73/11
f 44/78/12 46/74/12 42/84/12
o Cube.069_Cube.014
v -11.248631 0.615049 -11.717848
v -11.248631 0.615004 -11.780285
v -11.248631 0.729460 -11.717930
v -11.248631 0.729415 -11.780367
v -11.123412 0.615049 -11.717848
v -11.123412 0.615004 -11.780285
v -11.123412 0.729460 -11.717930
v -11.123412 0.729415 -11.780367
v -11.183875 0.615639 -10.891991
v -11.183875 0.615045 -11.719411
v -11.183875 0.730050 -10.892073
v -11.183875 0.729456 -11.719493
v -11.123522 0.615639 -10.891991
v -11.123522 0.615045 -11.719411
v -11.123522 0.730050 -10.892073
v -11.123522 0.729456 -11.719493
v -11.248648 0.615686 -10.830592
v -11.248648 0.615641 -10.893028
v -11.248648 0.730097 -10.830674
v -11.248648 0.730052 -10.893110
v -11.123428 0.615686 -10.830592
v -11.123428 0.615641 -10.893028
v -11.123428 0.730097 -10.830674
v -11.123428 0.730052 -10.893110
vt 0.625000 0.000000
vt 0.375000 0.000000
vt 0.375000 0.250000
vt 0.625000 0.250000
vt 0.375000 0.500000
vt 0.625000 0.500000
vt 0.375000 0.750000
vt 0.625000 0.750000
vt 0.375000 1.000000
vt 0.125000 0.500000
vt 0.125000 0.750000
vt 0.875000 0.500000
vt 0.625000 0.000000
vt 0.375000 0.000000
vt 0.375000 0.250000
vt 0.625000 0.250000
vt 0.375000 0.500000
vt 0.625000 0.500000
vt 0.375000 0.750000
vt 0.625000 0.750000
vt 0.375000 1.000000
vt 0.125000 0.500000
vt 0.125000 0.750000
vt 0.875000 0.500000
vt 0.625000 0.000000
vt 0.375000 0.000000
vt 0.375000 0.250000
vt 0.625000 0.250000
vt 0.375000 0.500000
vt 0.625000 0.500000
vt 0.375000 0.750000
vt 0.625000 0.750000
vt 0.375000 1.000000
vt 0.125000 0.500000
vt 0.125000 0.750000
vt 0.875000 0.500000
vt 0.625000 1.000000
vt 0.875000 0.750000
vt 0.625000 1.000000
vt 0.875000 0.750000
vt 0.625000 1.000000
vt 0.875000 0.750000
vn -1.0000 -0.0000 0.0000
vn 0.0000 1.0000 -0.0007
vn 1.0000 0.0000 0.0000
vn 0.0000 -1.0000 0.0007
vn 0.0000 0.0007 1.0000
vn 0.0000 -0.0007 -1.0000
usemtl None
s off
f 50/85/13 49/86/13 51/87/13
f 52/88/14 51/87/14 55/89/14
f 56/90/15 55/89/15 53/91/15
f 54/92/16 53/91/16 49/93/16
f 55/89/17 51/94/17 49/95/17
f 52/96/18 56/90/18 54/92/18
f 58/97/13 57/98/13 59/99/13
f 60/100/14 59/99/14 63/101/14
f 64/102/15 63/101/15 61/103/15
f 62/104/16 61/103/16 57/105/16
f 63/101/17 59/106/17 57/107/17
f 60/108/18 64/102/18 62/104/18
f 66/109/13 65/110/13 67/111/13
f 68/112/14 67/111/14 71/113/14
f 72/114/15 71/113/15 69/115/15
f 70/116/16 69/115/16 65/117/16
f 71/113/17 67/118/17 65/119/17
f 68/120/18 72/114/18 70/116/18
f 50/85/13 51/87/13 52/88/13
f 52/88/14 55/89/14 56/90/14
f 56/90/15 53/91/15 54/92/15
f 54/92/16 49/93/16 50/121/16
f 55/89/17 49/95/17 53/91/17
f 52/96/18 54/92/18 50/122/18
f 58/97/13 59/99/13 60/100/13
f 60/100/14 63/101/14 64/102/14
f 64/102/15 61/103/15 62/104/15
f 62/104/16 57/105/16 58/123/16
f 63/101/17 57/107/17 61/103/17
f 60/108/18 62/104/18 58/124/18
f 66/109/13 67/111/13 68/112/13
f 68/112/14 71/113/14 72/114/14
f 72/114/15 69/115/15 70/116/15
f 70/116/16 65/117/16 66/125/16
f 71/113/17 65/119/17 69/115/17
f 68/120/18 70/116/18 66/126/18
o Cube.072_Cube.017
v 7.624716 4.591319 -9.605579
v 7.624716 4.591363 -9.543142
v 7.624712 4.705730 -9.605661
v 7.624712 4.705775 -9.543224
v 7.499497 4.591315 -9.605579
v 7.499497 4.591360 -9.543142
v 7.499493 4.705726 -9.605661
v 7.499493 4.705771 -9.543224
v 7.559960 4.590722 -10.431437
v 7.559960 4.591315 -9.604016
v 7.559956 4.705133 -10.431519
v 7.559956 4.705727 -9.604098
v 7.499607 4.590720 -10.431437
v 7.499607 4.591313 -9.604016
v 7.499603 4.705131 -10.431519
v 7.499603 4.705725 -9.604098
v 7.624732 4.590683 -10.492835
v 7.624732 4.590727 -10.430399
v 7.624729 4.705094 -10.492917
v 7.624729 4.705139 -10.430481
v 7.499513 4.590678 -10.492835
v 7.499513 4.590723 -10.430399
v 7.499509 4.705090 -10.492917
v 7.499509 4.705134 -10.430481
vt 0.625000 0.000000
vt 0.375000 0.000000
vt 0.375000 0.250000
vt 0.625000 0.250000
vt 0.375000 0.500000
vt 0.625000 0.500000
vt 0.375000 0.750000
vt 0.625000 0.750000
vt 0.375000 1.000000
vt 0.125000 0.500000
vt 0.125000 0.750000
vt 0.875000 0.500000
vt 0.625000 0.000000
vt 0.375000 0.000000
vt 0.375000 0.250000
vt 0.625000 0.250000
vt 0.375000 0.500000
vt 0.625000 0.500000
vt 0.375000 0.750000
vt 0.625000 0.750000
vt 0.375000 1.000000
vt 0.125000 0.500000
vt 0.125000 0.750000
vt 0.875000 0.500000
vt 0.625000 0.000000
vt 0.375000 0.000000
vt 0.375000 0.250000
vt 0.625000 0.250000
vt 0.375000 0.500000
vt 0.625000 0.500000
vt 0.375000 0.750000
vt 0.625000 0.750000
vt 0.375000 1.000000
vt 0.125000 0.500000
vt 0.125000 0.750000
vt 0.875000 0.500000
vt 0.625000 1.000000
vt 0.875000 0.750000
vt 0.625000 1.000000
vt 0.875000 0.750000
vt 0.625000 1.000000
vt 0.875000 0.750000
vn 1.0000 0.0000 -0.0000
vn -0.0000 1.0000 -0.0007
vn -1.0000 -0.0000 0.0000
vn 0.0000 -1.0000 0.0007
vn 0.0000 -0.0007 -1.0000
vn 0.0000 0.0007 1.0000
usemtl None
s off
f 74/127/19 73/128/19 75/129/19
f 76/130/20 75/129/20 79/131/20
f 80/132/21 79/131/21 77/133/21
f 78/134/22 77/133/22 73/135/22
f 79/131/23 75/136/23 73/137/23
f 76/138/24 80/132/24 78/134/24
f 82/139/19 81/140/19 83/141/19
f 84/142/20 83/141/20 87/143/20
f 88/144/21 87/143/21 85/145/21
f 86/146/22 85/145/22 81/147/22
f 87/143/23 83/148/23 81/149/23
f 84/150/24 88/144/24 86/146/24
f 90/151/19 89/152/19 91/153/19
f 92/154/20 91/153/20 95/155/20
f 96/156/21 95/155/21 93/157/21
f 94/158/22 93/157/22 89/159/22
f 95/155/23 91/160/23 89/161/23
f 92/162/24 96/156/24 94/158/24
f 74/127/19 75/129/19 76/130/19
f 76/130/20 79/131/20 80/132/20
f 80/132/21 77/133/21 78/134/21
f 78/134/22 73/135/22 74/163/22
f 79/131/23 73/137/23 77/133/23
f 76/138/24 78/134/24 74/164/24
f 82/139/19 83/141/19 84/142/19
f 84/142/20 87/143/20 88/144/20
f 88/144/21 85/145/21 86/146/21
f 86/146/22 81/147/22 82/165/22
f 87/143/23 81/149/23 85/145/23
f 84/150/24 86/146/24 82/166/24
f 90/151/19 91/153/19 92/154/19
f 92/154/20 95/155/20 96/156/20
f 96/156/21 93/157/21 94/158/21
f 94/158/22 89/159/22 90/167/22
f 95/155/23 89/161/23 93/157/23
f 92/162/24 94/158/24 90/168/24
o Cube.071_Cube.016
v 7.624716 2.554229 -9.604117
v 7.624716 2.554273 -9.541680
v 7.624712 2.668640 -9.604199
v 7.624712 2.668684 -9.541762
v 7.499497 2.554224 -9.604117
v 7.499497 2.554269 -9.541680
v 7.499493 2.668636 -9.604199
v 7.499493 2.668680 -9.541762
v 7.559960 2.553632 -10.429975
v 7.559960 2.554225 -9.602554
v 7.559956 2.668043 -10.430057
v 7.559956 2.668636 -9.602636
v 7.499607 2.553629 -10.429975
v 7.499607 2.554223 -9.602554
v 7.499603 2.668041 -10.430057
v 7.499603 2.668634 -9.602636
v 7.624732 2.553592 -10.491373
v 7.624732 2.553637 -10.428937
v 7.624729 2.668003 -10.491455
v 7.624729 2.668048 -10.429019
v 7.499513 2.553588 -10.491373
v 7.499513 2.553633 -10.428937
v 7.499509 2.667999 -10.491455
v 7.499509 2.668044 -10.429019
vt 0.625000 0.000000
vt 0.375000 0.000000
vt 0.375000 0.250000
vt 0.625000 0.250000
vt 0.375000 0.500000
vt 0.625000 0.500000
vt 0.375000 0.750000
vt 0.625000 0.750000
vt 0.375000 1.000000
vt 0.125000 0.500000
vt 0.125000 0.750000
vt 0.875000 0.500000
vt 0.625000 0.000000
vt 0.375000 0.000000
vt 0.375000 0.250000
vt 0.625000 0.250000
vt 0.375000 0.500000
vt 0.625000 0.500000
vt 0.375000 0.750000
vt 0.625000 0.750000
vt 0.375000 1.000000
vt 0.125000 0.500000
vt 0.125000 0.750000
vt 0.875000 0.500000
vt 0.625000 0.000000
vt 0.375000 0.000000
vt 0.375000 0.250000
vt 0.625000 0.250000
vt 0.375000 0.500000
vt 0.625000 0.500000
vt 0.375000 0.750000
vt 0.625000 0.750000
vt 0.375000 1.000000
vt 0.125000 0.500000
vt 0.125000 0.750000
vt 0.875000 0.500000
vt 0.625000 1.000000
vt 0.875000 0.750000
vt 0.625000 1.000000
vt 0.875000 0.750000
vt 0.625000 1.000000
vt 0.875000 0.750000
vn 1.0000 0.0000 -0.0000
vn -0.0000 1.0000 -0.0007
vn -1.0000 -0.0000 0.0000
vn 0.0000 -1.0000 0.0007
vn 0.0000 -0.0007 -1.0000
vn 0.0000 0.0007 1.0000
usemtl None
s off
f 98/169/25 97/170/25 99/171/25
f 100/172/26 99/171/26 103/173/26
f 104/174/27 103/173/27 101/175/27
f 102/176/28 101/175/28 97/177/28
f 103/173/29 99/178/29 97/179/29
f 100/180/30 104/174/30 102/176/30
f 106/181/25 105/182/25 107/183/25
f 108/184/26 107/183/26 111/185/26
f 112/186/27 111/185/27 109/187/27
f 110/188/28 109/187/28 105/189/28
f 111/185/29 107/190/29 105/191/29
f 108/192/30 112/186/30 110/188/30
f 114/193/25 113/194/25 115/195/25
f 116/196/26 115/195/26 119/197/26
f 120/198/27 119/197/27 117/199/27
f 118/200/28 117/199/28 113/201/28
f 119/197/29 115/202/29 113/203/29
f 116/204/30 120/198/30 118/200/30
f 98/169/25 99/171/25 100/172/25
f 100/172/26 103/173/26 104/174/26
f 104/174/27 101/175/27 102/176/27
f 102/176/28 97/177/28 98/205/28
f 103/173/29 97/179/29 101/175/29
f 100/180/30 102/176/30 98/206/30
f 106/181/25 107/183/25 108/184/25
f 108/184/26 111/185/26 112/186/26
f 112/186/27 109/187/27 110/188/27
f 110/188/28 105/189/28 106/207/28
f 111/185/29 105/191/29 109/187/29
f 108/192/30 110/188/30 106/208/30
f 114/193/25 115/195/25 116/196/25
f 116/196/26 119/197/26 120/198/26
f 120/198/27 117/199/27 118/200/27
f 118/200/28 113/201/28 114/209/28
f 119/197/29 113/203/29 117/199/29
f 116/204/30 118/200/30 114/210/30
o Cube.070_Cube.015
v 7.624716 0.551013 -9.602679
v 7.624716 0.551058 -9.540242
v 7.624712 0.665425 -9.602761
v 7.624712 0.665469 -9.540324
v 7.499497 0.551009 -9.602679
v 7.499497 0.551054 -9.540242
v 7.499493 0.665421 -9.602761
v 7.499493 0.665465 -9.540324
v 7.559960 0.550416 -10.428536
v 7.559960 0.551010 -9.601116
v 7.559956 0.664828 -10.428618
v 7.559956 0.665421 -9.601198
v 7.499607 0.550414 -10.428536
v 7.499607 0.551008 -9.601116
v 7.499603 0.664826 -10.428618
v 7.499603 0.665419 -9.601198
v 7.624732 0.550377 -10.489935
v 7.624732 0.550422 -10.427499
v 7.624729 0.664788 -10.490017
v 7.624729 0.664833 -10.427581
v 7.499513 0.550373 -10.489935
v 7.499513 0.550418 -10.427499
v 7.499509 0.664784 -10.490017
v 7.499509 0.664829 -10.427581
vt 0.625000 0.000000
vt 0.375000 0.000000
vt 0.375000 0.250000
vt 0.625000 0.250000
vt 0.375000 0.500000
vt 0.625000 0.500000
vt 0.375000 0.750000
vt 0.625000 0.750000
vt 0.375000 1.000000
vt 0.125000 0.500000
vt 0.125000 0.750000
vt 0.875000 0.500000
vt 0.625000 0.000000
vt 0.375000 0.000000
vt 0.375000 0.250000
vt 0.625000 0.250000
vt 0.375000 0.500000
vt 0.625000 0.500000
vt 0.375000 0.750000
vt 0.625000 0.750000
vt 0.375000 1.000000
vt 0.125000 0.500000
vt 0.125000 0.750000
vt 0.875000 0.500000
vt 0.625000 0.000000
vt 0.375000 0.000000
vt 0.375000 0.250000
vt 0.625000 0.250000
vt 0.375000 0.500000
vt 0.625000 0.500000
vt 0.375000 0.750000
vt 0.625000 0.750000
vt 0.375000 1.000000
vt 0.125000 0.500000
vt 0.125000 0.750000
vt 0.875000 0.500000
vt 0.625000 1.000000
vt 0.875000 0.750000
vt 0.625000 1.000000
vt 0.875000 0.750000
vt 0.625000 1.000000
vt 0.875000 0.750000
vn 1.0000 0.0000 -0.0000
vn -0.0000 1.0000 -0.0007
vn -1.0000 -0.0000 0.0000
vn 0.0000 -1.0000 0.0007
vn 0.0000 -0.0007 -1.0000
vn 0.0000 0.0007 1.0000
usemtl None
s off
f 122/211/31 121/212/31 123/213/31
f 124/214/32 123/213/32 127/215/32
f 128/216/33 127/215/33 125/217/33
f 126/218/34 125/217/34 121/219/34
f 127/215/35 123/220/35 121/221/35
f 124/222/36 128/216/36 126/218/36
f 130/223/31 129/224/31 131/225/31
f 132/226/32 131/225/32 135/227/32
f 136/228/33 135/227/33 133/229/33
f 134/230/34 133/229/34 129/231/34
f 135/227/35 131/232/35 129/233/35
f 132/234/36 136/228/36 134/230/36
f 138/235/31 137/236/31 139/237/31
f 140/238/32 139/237/32 143/239/32
f 144/240/33 143/239/33 141/241/33
f 142/242/34 141/241/34 137/243/34
f 143/239/35 139/244/35 137/245/35
f 140/246/36 144/240/36 142/242/36
f 122/211/31 123/213/31 124/214/31
f 124/214/32 127/215/32 128/216/32
f 128/216/33 125/217/33 126/218/33
f 126/218/34 121/219/34 122/247/34
f 127/215/35 121/221/35 125/217/35
f 124/222/36 126/218/36 122/248/36
f 130/223/31 131/225/31 132/226/31
f 132/226/32 135/227/32 136/228/32
f 136/228/33 133/229/33 134/230/33
f 134/230/34 129/231/34 130/249/34
f 135/227/35 129/233/35 133/229/35
f 132/234/36 134/230/36 130/250/36
f 138/235/31 139/237/31 140/238/31
f 140/238/32 143/239/32 144/240/32
f 144/240/33 141/241/33 142/242/33
f 142/242/34 137/243/34 138/251/34
f 143/239/35 137/245/35 141/241/35
f 140/246/36 142/242/36 138/252/36
