# Blender v2.81 (sub 16) OBJ File: 'sala-pet-v2-0-0-copy.blend'
# www.blender.org
mtllib estande1.mtl
o Cube.029_Cube.052
v -4.486628 -0.358165 22.332127
v -4.486628 3.882208 22.332127
v -4.486628 -0.358165 18.155880
v -4.486628 3.882208 18.155880
v -18.088015 -0.358165 22.332127
v -18.088015 3.882208 22.332127
v -18.088015 -0.358165 18.155880
v -18.088015 3.882208 18.155880
v -17.744080 9.802875 22.488876
v -4.874079 9.802874 22.488876
v -17.744080 9.802875 18.227444
v -4.874079 9.802874 18.227444
v -17.744080 9.436738 22.488876
v -4.874079 9.436737 22.488876
v -17.744080 9.436738 18.227444
v -4.874079 9.436737 18.227444
v -4.848621 3.872829 22.488876
v -4.848621 15.366782 22.488876
v -4.848621 3.872829 18.227444
v -4.848621 15.366782 18.227444
v -4.482485 3.872829 22.488876
v -4.482485 15.366782 22.488876
v -4.482485 3.872829 18.227444
v -4.482485 15.366782 18.227444
v -17.744078 15.361654 22.488876
v -4.874078 15.361654 22.488876
v -17.744078 15.361654 18.227444
v -4.874078 15.361654 18.227444
v -17.744078 14.995519 22.488876
v -4.874078 14.995519 22.488876
v -17.744078 14.995519 18.227444
v -4.874078 14.995519 18.227444
v -18.149855 3.872829 22.488876
v -18.149855 15.366782 22.488876
v -18.149855 3.872829 18.227444
v -18.149855 15.366782 18.227444
v -17.783718 3.872829 22.488876
v -17.783718 15.366782 22.488876
v -17.783718 3.872829 18.227444
v -17.783718 15.366782 18.227444
vt 0.625000 0.000000
vt 0.375000 0.000000
vt 0.375000 0.250000
vt 0.625000 0.250000
vt 0.375000 0.500000
vt 0.625000 0.500000
vt 0.375000 0.750000
vt 0.625000 0.750000
vt 0.375000 1.000000
vt 0.125000 0.500000
vt 0.125000 0.750000
vt 0.875000 0.500000
vt 0.625000 0.000000
vt 0.375000 0.000000
vt 0.375000 0.250000
vt 0.625000 0.250000
vt 0.375000 0.500000
vt 0.625000 0.500000
vt 0.375000 0.750000
vt 0.375000 1.000000
vt 0.625000 1.000000
vt 0.125000 0.500000
vt 0.125000 0.750000
vt 0.875000 0.500000
vt 0.625000 0.750000
vt 0.625000 0.000000
vt 0.375000 0.000000
vt 0.375000 0.250000
vt 0.625000 0.250000
vt 0.375000 0.500000
vt 0.625000 0.500000
vt 0.375000 0.750000
vt 0.625000 0.750000
vt 0.375000 1.000000
vt 0.125000 0.500000
vt 0.125000 0.750000
vt 0.875000 0.500000
vt 0.625000 0.000000
vt 0.375000 0.000000
vt 0.375000 0.250000
vt 0.625000 0.250000
vt 0.375000 0.500000
vt 0.625000 0.500000
vt 0.375000 0.750000
vt 0.625000 0.750000
vt 0.375000 1.000000
vt 0.125000 0.500000
vt 0.125000 0.750000
vt 0.875000 0.500000
vt 0.625000 0.000000
vt 0.375000 0.000000
vt 0.375000 0.250000
vt 0.625000 0.250000
vt 0.375000 0.500000
vt 0.625000 0.500000
vt 0.375000 0.750000
vt 0.625000 0.750000
vt 0.375000 1.000000
vt 0.125000 0.500000
vt 0.125000 0.750000
vt 0.875000 0.500000
vt 0.625000 1.000000
vt 0.875000 0.750000
vt 0.875000 0.750000
vt 0.625000 1.000000
vt 0.875000 0.750000
vt 0.625000 1.000000
vt 0.875000 0.750000
vt 0.625000 1.000000
vt 0.875000 0.750000
vn 1.0000 0.0000 0.0000
vn 0.0000 0.0000 -1.0000
vn -1.0000 0.0000 0.0000
vn 0.0000 0.0000 1.0000
vn 0.0000 -1.0000 0.0000
vn 0.0000 1.0000 0.0000
usemtl None
s off
f 2/1/1 1/2/1 3/3/1
f 4/4/2 3/3/2 7/5/2
f 8/6/3 7/5/3 5/7/3
f 6/8/4 5/7/4 1/9/4
f 7/5/5 3/10/5 1/11/5
f 4/12/6 8/6/6 6/8/6
f 10/13/5 9/14/5 11/15/5
f 12/16/4 11/15/4 15/17/4
f 16/18/6 15/17/6 13/19/6
f 13/19/2 9/20/2 10/21/2
f 15/17/1 11/22/1 9/23/1
f 12/24/3 16/18/3 14/25/3
f 18/26/1 17/27/1 19/28/1
f 20/29/4 19/28/4 23/30/4
f 24/31/3 23/30/3 21/32/3
f 22/33/2 21/32/2 17/34/2
f 23/30/6 19/35/6 17/36/6
f 20/37/5 24/31/5 22/33/5
f 26/38/5 25/39/5 27/40/5
f 28/41/4 27/40/4 31/42/4
f 32/43/6 31/42/6 29/44/6
f 30/45/2 29/44/2 25/46/2
f 31/42/1 27/47/1 25/48/1
f 28/49/3 32/43/3 30/45/3
f 34/50/1 33/51/1 35/52/1
f 36/53/4 35/52/4 39/54/4
f 40/55/3 39/54/3 37/56/3
f 38/57/2 37/56/2 33/58/2
f 39/54/6 35/59/6 33/60/6
f 36/61/5 40/55/5 38/57/5
f 2/1/1 3/3/1 4/4/1
f 4/4/2 7/5/2 8/6/2
f 8/6/3 5/7/3 6/8/3
f 6/8/4 1/9/4 2/62/4
f 7/5/5 1/11/5 5/7/5
f 4/12/6 6/8/6 2/63/6
f 10/13/5 11/15/5 12/16/5
f 12/16/4 15/17/4 16/18/4
f 16/18/6 13/19/6 14/25/6
f 13/19/2 10/21/2 14/25/2
f 15/17/1 9/23/1 13/19/1
f 12/24/3 14/25/3 10/64/3
f 18/26/1 19/28/1 20/29/1
f 20/29/4 23/30/4 24/31/4
f 24/31/3 21/32/3 22/33/3
f 22/33/2 17/34/2 18/65/2
f 23/30/6 17/36/6 21/32/6
f 20/37/5 22/33/5 18/66/5
f 26/38/5 27/40/5 28/41/5
f 28/41/4 31/42/4 32/43/4
f 32/43/6 29/44/6 30/45/6
f 30/45/2 25/46/2 26/67/2
f 31/42/1 25/48/1 29/44/1
f 28/49/3 30/45/3 26/68/3
f 34/50/1 35/52/1 36/53/1
f 36/53/4 39/54/4 40/55/4
f 40/55/3 37/56/3 38/57/3
f 38/57/2 33/58/2 34/69/2
f 39/54/6 33/60/6 37/56/6
f 36/61/5 38/57/5 34/70/5
